# xmcd CD database file
#
# Track frame offsets:
#	150
#	12304
#	26897
#	38028
#	52648
#	65114
#	77379
#	90608
#	103254
#	115512
#	128656
#	138121
#	152238
#	165739
#	178280
#	187320
#	197423
#	209127
#	220211
#	234074
#	247220
#	259683
#	287005
#	300753
#	315642
#	326756
#
# Disc length: 4589 seconds
#
# Revision: 2
# Processed by: cddbd v1.5.2PL0 Copyright (c) Steve Scherf et al.
# Submitted via: CDex 1.51
#
DISCID=6d11eb1a
DTITLE=Woody Herman - [CD 08-10] - Never Mind The Noise
DYEAR=1900
DGENRE=Jazz
TTITLE0=In A Little Spanish Town  [1952]
TTITLE1=Nice Work If You Can Get It  [1952]
TTITLE2=I Can't Beleve That You're In Love With Me  [1952]
TTITLE3=This Is New  [1952]
TTITLE4=Almost Like Being In Love  [1952]
TTITLE5=Mother Goose Jumps  [1952]
TTITLE6=Lazy Lullaby  [1952]
TTITLE7=I'm Makin' Up For Lost Time  [1952]
TTITLE8=Buck Dance  [1953]
TTITLE9=No True Love  [1953]
TTITLE10=Go Down The Wishing Road  [1953]
TTITLE11=Blue Lou  [1953]
TTITLE12=A Fool In Love  [1953]
TTITLE13=Wooftie  [1953]
TTITLE14=Never Mind The Noise  [1954]
TTITLE15=Run Joe  [1954]
TTITLE16=Fancy Woman  [1954]
TTITLE17=Eight Babies To Mind  [1954]
TTITLE18=Men From Mars  [1953]
TTITLE19=Moody  [1953]
TTITLE20=Beau Jazz  [1953]
TTITLE21=Wild Apple Honey  [1954]
TTITLE22=Strange  [1954]
TTITLE23=Misty Morning  [1954]
TTITLE24=Would He ¿  [1954]
TTITLE25=Sleep  [1954]
EXTD=
EXTT0=
EXTT1=
EXTT2=
EXTT3=
EXTT4=
EXTT5=
EXTT6=
EXTT7=
EXTT8=
EXTT9=
EXTT10=
EXTT11=
EXTT12=
EXTT13=
EXTT14=
EXTT15=
EXTT16=
EXTT17=
EXTT18=
EXTT19=
EXTT20=
EXTT21=
EXTT22=
EXTT23=
EXTT24=
EXTT25=
PLAYORDER=
